<svg width="21" height="24" viewBox="0 0 21 24" fill="none" xmlns="http://www.w3.org/2000/svg">
<path d="M6.31367 4.03342H6.81367V3.53342C6.81367 2.23814 7.87552 1.17628 9.17081 1.17628H12.028C13.3232 1.17628 14.3851 2.23814 14.3851 3.53342V4.03342H14.8851H17.7422C18.8661 4.03342 19.8143 4.83286 20.0455 5.89057H1.15324C1.38448 4.83286 2.33263 4.03342 3.45652 4.03342H6.31367ZM3.95652 22.9906V9.74771H5.84224V19.2477C5.84224 20.3239 6.69467 21.1763 7.77081 21.1763C8.84695 21.1763 9.69938 20.3239 9.69938 19.2477V9.74771H11.5565V19.2477C11.5565 20.3239 12.409 21.1763 13.4851 21.1763C14.5612 21.1763 15.4137 20.3239 15.4137 19.2477V9.74771H17.2708V22.9906C17.2708 23.0081 17.2677 23.0179 17.2662 23.0217C17.2653 23.0238 17.2646 23.025 17.2643 23.0255L17.2637 23.0263L17.2629 23.0269C17.2627 23.027 17.2623 23.0273 17.2618 23.0276C17.2611 23.0279 17.2603 23.0283 17.2591 23.0288C17.2553 23.0303 17.2455 23.0334 17.228 23.0334H3.99938C3.9818 23.0334 3.97206 23.0303 3.96821 23.0288C3.96611 23.0279 3.96493 23.0272 3.96442 23.0269L3.96365 23.0263L3.96306 23.0255C3.96293 23.0253 3.96276 23.0251 3.96254 23.0247C3.96218 23.024 3.9617 23.0231 3.96117 23.0217C3.95962 23.0179 3.95652 23.0081 3.95652 22.9906Z" fill="black" stroke="black"/>
</svg>
